<?xml version="1.0" encoding="utf-8"?>
<!-- Generator: Adobe Illustrator 24.3.0, SVG Export Plug-In . SVG Version: 6.00 Build 0)  -->
<svg version="1.1" id="Layer_1" xmlns="http://www.w3.org/2000/svg" xmlns:xlink="http://www.w3.org/1999/xlink" x="0px" y="0px"
	 viewBox="0 0 1080 1080" style="enable-background:new 0 0 1080 1080;" xml:space="preserve">
<style type="text/css">
	.st0{fill:#061826;}
	.st1{fill:#FF6B35;}
	.st2{enable-background:new    ;}
</style>
<g>
	<path class="st0" d="M540,0C241.8,0,0,241.8,0,540s241.8,540,540,540s540-241.8,540-540S838.2,0,540,0z M910.4,910.4
		c-48.1,48.1-104.1,85.9-166.5,112.3c-64.6,27.3-133.2,41.2-203.9,41.2s-139.3-13.8-203.9-41.2c-62.4-26.4-118.4-64.2-166.5-112.3
		S83.7,806.3,57.3,743.9C30,679.3,16.1,610.7,16.1,540s13.8-139.3,41.2-203.9c26.4-62.4,64.2-118.4,112.3-166.5
		S273.7,83.7,336.1,57.3C400.7,30,469.3,16.1,540,16.1S679.3,30,743.9,57.3c62.4,26.4,118.4,64.2,166.5,112.3
		s85.9,104.1,112.3,166.5c27.3,64.6,41.2,133.2,41.2,203.9s-13.8,139.3-41.2,203.9C996.3,806.3,958.6,862.3,910.4,910.4z"/>
	<g>
		<path class="st1" d="M61.9,502H38C53.1,236.2,273.5,28.3,540,28.3c128.5,0,250.7,48.4,344.3,136.3
			c93.2,87.5,149.2,209.7,157.7,336.8l-23.9,0.3C1001.4,251.1,791.4,52.2,540,52.2C286.1,52.2,76.3,248.8,61.9,502z"/>
	</g>
	<g class="st2">
		<path class="st0" d="M367.9,965.5v-39.3c0-1.5-0.7-2.2-2.2-2.2h-3.3v-9.6h26.5v9.6h-5.5v42.3h15.9l2.9-8.6h8.3v19.6h-48v-9.6h3.1
			C367.1,967.7,367.9,967,367.9,965.5z"/>
		<path class="st0" d="M420.9,965.5v-39.3c0-1.5-0.7-2.2-2.2-2.2h-3.3v-9.6h48.6v18.2h-8l-3.3-7.1h-16.3v14.6h18.3v9.5h-18.3v16.7
			h17.1l2.8-7.3h8v18.3h-48.9v-9.6h3.1C420.1,967.7,420.9,967,420.9,965.5z"/>
		<path class="st0" d="M475.9,964.7L489,924h-8.9l2.5-9.6h29.5l16.3,50.3c0.7,2,1.8,3,3.2,3h3.1v9.6h-27.4v-9.6h5.2l-3.5-12.5h-17.6
			l-3.8,12.5h5.4v9.6h-24.3v-9.6h3.8C474.1,967.7,475.2,966.7,475.9,964.7z M493.8,946.7h13.2l-6.1-20.9H500L493.8,946.7z"/>
		<path class="st0" d="M568.6,924.5c-5.3,0-9.3,1.8-12.1,5.5c-2.8,3.6-4.2,9-4.2,16.2c0,6.6,1.4,11.8,4.2,15.6
			c2.8,3.8,6.9,5.6,12.4,5.6c3.1,0,6.1-0.5,9.1-1.5v-11.8H567v-10.2h25.6v29.9c-3.6,1.3-7.7,2.4-12.3,3.3c-4.8,0.9-9.2,1.3-13.3,1.3
			c-10,0-17.6-2.8-22.8-8.4c-5.2-5.6-7.8-13.7-7.8-24.4c0-10.1,3-18,9-23.7c6-5.7,14.2-8.6,24.5-8.6c2.9,0,6.3,0.3,10.3,0.8
			c4,0.5,7.5,1.2,10.5,2.1v15.8h-9.2C580,927,575.7,924.5,568.6,924.5z"/>
		<path class="st0" d="M655.3,926v28.7c0,8.1-2.1,14-6.3,17.9s-10.5,5.7-18.9,5.7c-8.6,0-15.1-1.9-19.3-5.8
			c-4.3-3.8-6.4-9.8-6.4-17.8V926c0-1.3-0.7-2-2.1-2h-3v-9.6h25.9v9.6h-5.4v32c0,7.6,3.8,11.4,11.4,11.4c1.2,0,2.4-0.1,3.5-0.4
			c1.1-0.3,2.3-0.8,3.6-1.5c1.3-0.7,2.3-1.9,3.1-3.5c0.8-1.6,1.2-3.6,1.2-5.9v-32h-5.1v-9.6h22.9v9.6h-3
			C656,924,655.3,924.7,655.3,926z"/>
		<path class="st0" d="M671.9,965.5v-39.3c0-1.5-0.7-2.2-2.2-2.2h-3.3v-9.6H715v18.2h-8l-3.3-7.1h-16.3v14.6h18.3v9.5h-18.3v16.7
			h17.1l2.8-7.3h8v18.3h-48.9v-9.6h3.1C671.1,967.7,671.9,967,671.9,965.5z"/>
	</g>
	<path class="st0" d="M1049.1,562.8C1041.7,675,1006.8,762.3,945,851l-802.9-0.1C77.2,770.4,38.3,675,30.9,562.8H1049.1z"/>
	<g class="st2">
		<path class="st1" d="M112.3,698.3v-38.6l18.4-17.2h45.9l18.4,17.2v17.2h-27.6v-8.6h-27.6v21.5h36.8l18.4,17.2v38.6l-18.4,17.2
			h-45.9l-18.4-17.2v-17.2h27.6v8.6h27.6v-21.5h-36.8L112.3,698.3z"/>
		<path class="st1" d="M239.7,762.6v-94.4h-27.6v-25.7h82.7v25.7h-27.6v94.4H239.7z"/>
		<path class="st1" d="M394.6,642.5v103l-18.4,17.2h-45.9l-18.4-17.2v-103h27.6v94.4H367v-94.4H394.6z"/>
		<path class="st1" d="M411.7,642.5H476l18.4,17.2v85.8L476,762.6h-64.3V642.5z M439.2,736.9h27.6v-68.7h-27.6V736.9z"/>
		<path class="st1" d="M539,668.2v21.5h27.6v25.7H539v21.5h55.1v25.7h-82.7V642.5h82.7v25.7H539z"/>
		<path class="st1" d="M638.8,697.8v64.9h-27.6V642.5h27.6l36.8,65v-65h27.6v120.1h-27.6L638.8,697.8z"/>
		<path class="st1" d="M747.7,762.6v-94.4h-27.6v-25.7h82.7v25.7h-27.6v94.4H747.7z"/>
		<path class="st1" d="M820,642.5h27.6v25.7L820,685.4V642.5z"/>
		<path class="st1" d="M864.6,698.3v-38.6l18.4-17.2h45.9l18.4,17.2v17.2h-27.6v-8.6h-27.6v21.5h36.8l18.4,17.2v38.6l-18.4,17.2H883
			l-18.4-17.2v-17.2h27.6v8.6h27.6v-21.5H883L864.6,698.3z"/>
	</g>
	<path class="st0" d="M681.4,227.2c0,0-75.6,19.9-92.3-60c0,0,72-26.2,96.3,48.4l43.2,25.6c0,0-44.9-55.3-12.1-111
		c0,0,92.5,40.1,38.6,125.2l37.3,31.3c0,0-15.6-62.9,24.5-100.4c0,0,80,66.2,0.7,134.4l30.5,49c0,0-13.5-58.7,44.2-101.4
		c0,0,67.8,84.4-32.5,132.9l21.4,53.7c0,0,0.1-56.8,72.1-88.5c0,0,27.1,106-65.8,117.5l3.1,53.4c0,0,25.2-53.3,87.6-59.8
		c0,0,21.3,83-92.4,99.8l-10.2,38.2l-8.7-2.3l7.1-38.6c0,0-81-7-87-80.2c0,0,64.6-16.1,92.7,45.7l-2.6-55.9
		c0,0-71.1,11.6-110.2-48.1c0,0,68.8-35.4,104.8,20.8l-21.2-51c0,0-69.6,24-115-25.3c0,0,60.2-42.1,103.2-7.5l-28.1-44.5
		c0,0-62.8,46.2-118.4,8.2c0,0,37-53.5,93-37.7l-37.1-32.4c0,0-56.4,62.1-114.2,38.5c0,0,36.6-61.1,83.8-58.1L681.4,227.2z"/>
	<path class="st0" d="M398.6,227.2c0,0,75.6,19.9,92.3-60c0,0-72-26.2-96.3,48.4l-43.2,25.6c0,0,44.9-55.3,12.1-111
		c0,0-92.5,40.1-38.6,125.2l-37.3,31.3c0,0,15.6-62.9-24.5-100.4c0,0-80,66.2-0.7,134.4l-30.5,49c0,0,13.5-58.7-44.2-101.4
		c0,0-67.8,84.4,32.5,132.9l-21.4,53.7c0,0-0.1-56.8-72.1-88.5c0,0-27.1,106,65.8,117.5l-3.1,53.4c0,0-25.2-53.3-87.6-59.8
		c0,0-21.3,83,92.4,99.8l10.2,38.2l8.7-2.3l-7.1-38.6c0,0,81-7,87-80.2c0,0-64.6-16.1-92.7,45.7l2.6-55.9c0,0,71.1,11.6,110.2-48.1
		c0,0-68.8-35.4-104.8,20.8l21.2-51c0,0,69.6,24,115-25.3c0,0-60.2-42.1-103.2-7.5l28.1-44.5c0,0,62.8,46.2,118.4,8.2
		c0,0-37-53.5-93-37.7l37.1-32.4c0,0,56.4,62.1,114.2,38.5c0,0-36.6-61.1-83.8-58.1L398.6,227.2z"/>
	<path class="st1" d="M545.2,336.5l25,50.6c0.8,1.7,2.5,2.9,4.4,3.2l55.8,8.1c4.7,0.7,6.6,6.5,3.2,9.9l-40.4,39.4
		c-1.4,1.3-2,3.2-1.7,5.1l9.5,55.6c0.8,4.7-4.1,8.3-8.4,6.1l-49.9-26.3c-1.7-0.9-3.7-0.9-5.4,0l-49.9,26.3c-4.2,2.2-9.2-1.4-8.4-6.1
		l9.5-55.6c0.3-1.9-0.3-3.8-1.7-5.1l-40.4-39.4c-3.4-3.3-1.5-9.2,3.2-9.9l55.8-8.1c1.9-0.3,3.5-1.5,4.4-3.2l25-50.6
		C536.9,332.2,543.1,332.2,545.2,336.5z"/>
</g>
</svg>
